<svg width="62" height="58" viewBox="0 0 62 58" fill="none" xmlns="http://www.w3.org/2000/svg">
<rect width="62" height="58" fill="#191B1F"/>
<rect width="62" height="58" rx="10" fill="#2D3C61"/>
<rect x="5" y="7" width="6" height="6" rx="1" fill="white"/>
<rect x="5" y="46" width="6" height="6" rx="1" fill="white"/>
<rect x="5" y="33" width="6" height="6" rx="1" fill="white"/>
<rect x="5" y="20" width="6" height="6" rx="1" fill="white"/>
<rect x="52" y="7" width="6" height="6" rx="1" fill="white"/>
<rect x="52" y="46" width="6" height="6" rx="1" fill="white"/>
<rect x="52" y="33" width="6" height="6" rx="1" fill="white"/>
<rect x="52" y="20" width="6" height="6" rx="1" fill="white"/>
<rect x="14" width="35" height="58" fill="#8A8CC1"/>
<circle cx="31.5" cy="29.5" r="12.5" fill="white"/>
<path d="M39 29.5L27.75 35.9952V23.0048L39 29.5Z" fill="#ED6A6A"/>
</svg>
