<svg width="122" height="52" viewBox="0 0 122 52" fill="none" xmlns="http://www.w3.org/2000/svg">
<rect width="122" height="52" fill="#191B1F"/>
<rect width="122" height="52" rx="7" fill="#06B4E3"/>
<path d="M26.16 38.396C24.36 38.396 22.872 38.12 21.696 37.568C20.544 37.016 19.68 36.188 19.104 35.084C18.528 33.956 18.24 32.552 18.24 30.872V25.004H17.016C16.248 25.004 15.648 24.8 15.216 24.392C14.808 23.984 14.604 23.396 14.604 22.628C14.604 21.86 14.808 21.284 15.216 20.9C15.648 20.492 16.248 20.288 17.016 20.288H18.24V18.056C18.24 17 18.516 16.196 19.068 15.644C19.62 15.092 20.412 14.816 21.444 14.816C22.476 14.816 23.268 15.092 23.82 15.644C24.372 16.196 24.648 17 24.648 18.056V20.288H27.6C28.392 20.288 28.992 20.492 29.4 20.9C29.832 21.284 30.048 21.86 30.048 22.628C30.048 23.396 29.832 23.984 29.4 24.392C28.992 24.8 28.392 25.004 27.6 25.004H24.648V30.656C24.648 31.544 24.852 32.204 25.26 32.636C25.692 33.044 26.364 33.248 27.276 33.248C27.612 33.248 27.936 33.212 28.248 33.14C28.56 33.068 28.848 33.032 29.112 33.032C29.496 33.008 29.808 33.128 30.048 33.392C30.288 33.632 30.408 34.196 30.408 35.084C30.408 35.804 30.3 36.416 30.084 36.92C29.868 37.4 29.484 37.748 28.932 37.964C28.596 38.084 28.14 38.18 27.564 38.252C26.988 38.348 26.52 38.396 26.16 38.396ZM35.4401 38.324C34.4321 38.324 33.6521 38.048 33.1001 37.496C32.5481 36.944 32.2721 36.14 32.2721 35.084V23.168C32.2721 22.136 32.5361 21.344 33.0641 20.792C33.6161 20.24 34.3961 19.964 35.4041 19.964C36.4121 19.964 37.1801 20.24 37.7081 20.792C38.2361 21.344 38.5001 22.136 38.5001 23.168V25.148L38.1041 23.384C38.6081 22.328 39.3521 21.488 40.3361 20.864C41.3441 20.216 42.5321 19.892 43.9001 19.892C45.1961 19.892 46.3001 20.204 47.2121 20.828C48.1481 21.452 48.8201 22.4 49.2281 23.672H48.7241C49.2761 22.496 50.1041 21.572 51.2081 20.9C52.3121 20.228 53.5361 19.892 54.8801 19.892C56.2721 19.892 57.4121 20.168 58.3001 20.72C59.1881 21.248 59.8481 22.088 60.2801 23.24C60.7361 24.368 60.9641 25.796 60.9641 27.524V35.084C60.9641 36.14 60.6761 36.944 60.1001 37.496C59.5481 38.048 58.7561 38.324 57.7241 38.324C56.7161 38.324 55.9361 38.048 55.3841 37.496C54.8321 36.944 54.5561 36.14 54.5561 35.084V27.704C54.5561 26.672 54.4001 25.928 54.0881 25.472C53.7761 25.016 53.2601 24.788 52.5401 24.788C51.6521 24.788 50.9681 25.1 50.4881 25.724C50.0321 26.348 49.8041 27.236 49.8041 28.388V35.084C49.8041 36.14 49.5281 36.944 48.9761 37.496C48.4241 38.048 47.6321 38.324 46.6001 38.324C45.5681 38.324 44.7761 38.048 44.2241 37.496C43.6721 36.944 43.3961 36.14 43.3961 35.084V27.704C43.3961 26.672 43.2401 25.928 42.9281 25.472C42.6161 25.016 42.1001 24.788 41.3801 24.788C40.5161 24.788 39.8441 25.1 39.3641 25.724C38.9081 26.348 38.6801 27.236 38.6801 28.388V35.084C38.6801 37.244 37.6001 38.324 35.4401 38.324ZM71.5965 38.396C70.0845 38.396 68.7405 38.024 67.5645 37.28C66.4125 36.536 65.5005 35.468 64.8285 34.076C64.1805 32.684 63.8565 31.04 63.8565 29.144C63.8565 27.2 64.1805 25.544 64.8285 24.176C65.5005 22.808 66.4125 21.752 67.5645 21.008C68.7405 20.264 70.0845 19.892 71.5965 19.892C72.9165 19.892 74.1045 20.204 75.1605 20.828C76.2165 21.452 76.9245 22.256 77.2845 23.24H76.8885V15.536C76.8885 14.48 77.1645 13.676 77.7165 13.124C78.2685 12.572 79.0605 12.296 80.0925 12.296C81.1005 12.296 81.8805 12.572 82.4325 13.124C83.0085 13.676 83.2965 14.48 83.2965 15.536V35.084C83.2965 36.14 83.0205 36.944 82.4685 37.496C81.9405 38.048 81.1605 38.324 80.1285 38.324C79.1205 38.324 78.3405 38.048 77.7885 37.496C77.2365 36.944 76.9605 36.14 76.9605 35.084V33.032L77.3565 34.796C77.0205 35.876 76.3125 36.752 75.2325 37.424C74.1765 38.072 72.9645 38.396 71.5965 38.396ZM73.6485 33.68C74.2965 33.68 74.8725 33.524 75.3765 33.212C75.8805 32.876 76.2645 32.384 76.5285 31.736C76.8165 31.064 76.9605 30.2 76.9605 29.144C76.9605 27.536 76.6485 26.384 76.0245 25.688C75.4005 24.968 74.6085 24.608 73.6485 24.608C73.0005 24.608 72.4245 24.764 71.9205 25.076C71.4165 25.388 71.0205 25.88 70.7325 26.552C70.4445 27.2 70.3005 28.064 70.3005 29.144C70.3005 30.728 70.6125 31.88 71.2365 32.6C71.8605 33.32 72.6645 33.68 73.6485 33.68ZM98.6727 38.396C97.3047 38.396 96.0807 38.072 95.0007 37.424C93.9447 36.752 93.2487 35.876 92.9127 34.796L93.3087 33.32V35.084C93.3087 36.14 93.0327 36.944 92.4807 37.496C91.9527 38.048 91.1847 38.324 90.1767 38.324C89.1447 38.324 88.3527 38.048 87.8007 37.496C87.2727 36.944 87.0087 36.14 87.0087 35.084V15.536C87.0087 14.48 87.2847 13.676 87.8367 13.124C88.3887 12.572 89.1687 12.296 90.1767 12.296C91.2087 12.296 92.0007 12.572 92.5527 13.124C93.1287 13.676 93.4167 14.48 93.4167 15.536V23.24H92.9847C93.3447 22.256 94.0527 21.452 95.1087 20.828C96.1647 20.204 97.3527 19.892 98.6727 19.892C100.209 19.892 101.553 20.264 102.705 21.008C103.881 21.752 104.793 22.808 105.441 24.176C106.089 25.544 106.413 27.2 106.413 29.144C106.413 31.04 106.089 32.684 105.441 34.076C104.793 35.468 103.881 36.536 102.705 37.28C101.553 38.024 100.209 38.396 98.6727 38.396ZM96.6567 33.68C97.3047 33.68 97.8687 33.524 98.3487 33.212C98.8527 32.876 99.2487 32.384 99.5367 31.736C99.8247 31.064 99.9687 30.2 99.9687 29.144C99.9687 27.536 99.6567 26.384 99.0327 25.688C98.4087 24.968 97.6167 24.608 96.6567 24.608C96.0087 24.608 95.4327 24.764 94.9287 25.076C94.4247 25.388 94.0287 25.88 93.7407 26.552C93.4527 27.2 93.3087 28.064 93.3087 29.144C93.3087 30.728 93.6207 31.88 94.2447 32.6C94.8687 33.32 95.6727 33.68 96.6567 33.68Z" fill="white"/>
</svg>
