<svg width="226" height="58" viewBox="0 0 226 58" fill="none" xmlns="http://www.w3.org/2000/svg">
<path d="M76.364 41.324C75.404 41.324 74.66 41.06 74.132 40.532C73.628 40.004 73.376 39.26 73.376 38.3V18.32C73.376 17.336 73.652 16.592 74.204 16.088C74.756 15.56 75.536 15.296 76.544 15.296C77.384 15.296 78.044 15.464 78.524 15.8C79.028 16.112 79.484 16.64 79.892 17.384L87.632 31.28H86.372L94.076 17.384C94.508 16.64 94.964 16.112 95.444 15.8C95.948 15.464 96.62 15.296 97.46 15.296C98.42 15.296 99.152 15.56 99.656 16.088C100.184 16.592 100.448 17.336 100.448 18.32V38.3C100.448 39.26 100.196 40.004 99.692 40.532C99.188 41.06 98.444 41.324 97.46 41.324C96.5 41.324 95.756 41.06 95.228 40.532C94.724 40.004 94.472 39.26 94.472 38.3V25.916H95.228L89.432 35.996C89.096 36.524 88.736 36.92 88.352 37.184C87.992 37.448 87.5 37.58 86.876 37.58C86.276 37.58 85.784 37.448 85.4 37.184C85.016 36.92 84.668 36.524 84.356 35.996L78.524 25.88H79.352V38.3C79.352 39.26 79.1 40.004 78.596 40.532C78.092 41.06 77.348 41.324 76.364 41.324ZM113.652 41.396C111.684 41.396 109.968 41.024 108.504 40.28C107.04 39.536 105.9 38.468 105.084 37.076C104.268 35.684 103.86 34.04 103.86 32.144C103.86 30.704 104.088 29.42 104.544 28.292C105 27.14 105.66 26.168 106.524 25.376C107.388 24.56 108.42 23.948 109.62 23.54C110.82 23.108 112.164 22.892 113.652 22.892C115.62 22.892 117.336 23.264 118.8 24.008C120.264 24.752 121.392 25.82 122.184 27.212C123 28.58 123.408 30.224 123.408 32.144C123.408 33.56 123.18 34.844 122.724 35.996C122.268 37.148 121.608 38.132 120.744 38.948C119.904 39.74 118.872 40.352 117.648 40.784C116.448 41.192 115.116 41.396 113.652 41.396ZM113.652 36.68C114.3 36.68 114.876 36.524 115.38 36.212C115.884 35.876 116.268 35.384 116.532 34.736C116.82 34.064 116.964 33.2 116.964 32.144C116.964 30.536 116.652 29.384 116.028 28.688C115.404 27.968 114.612 27.608 113.652 27.608C113.004 27.608 112.428 27.764 111.924 28.076C111.42 28.388 111.024 28.88 110.736 29.552C110.448 30.2 110.304 31.064 110.304 32.144C110.304 33.728 110.616 34.88 111.24 35.6C111.864 36.32 112.668 36.68 113.652 36.68ZM133.736 41.324C132.896 41.324 132.176 41.12 131.576 40.712C131 40.28 130.52 39.644 130.136 38.804L124.988 27.032C124.7 26.312 124.604 25.64 124.7 25.016C124.796 24.392 125.096 23.9 125.6 23.54C126.128 23.156 126.848 22.964 127.76 22.964C128.528 22.964 129.14 23.144 129.596 23.504C130.076 23.84 130.508 24.512 130.892 25.52L134.528 34.88H133.304L137.12 25.484C137.504 24.5 137.936 23.84 138.416 23.504C138.896 23.144 139.556 22.964 140.396 22.964C141.116 22.964 141.692 23.156 142.124 23.54C142.58 23.9 142.856 24.392 142.952 25.016C143.048 25.64 142.928 26.312 142.592 27.032L137.336 38.84C136.976 39.68 136.496 40.304 135.896 40.712C135.32 41.12 134.6 41.324 133.736 41.324ZM148.567 41.324C147.559 41.324 146.779 41.024 146.227 40.424C145.675 39.824 145.399 38.96 145.399 37.832V26.456C145.399 25.328 145.675 24.464 146.227 23.864C146.779 23.264 147.559 22.964 148.567 22.964C149.599 22.964 150.391 23.264 150.943 23.864C151.519 24.464 151.807 25.328 151.807 26.456V37.832C151.807 38.96 151.531 39.824 150.979 40.424C150.427 41.024 149.623 41.324 148.567 41.324ZM148.567 20.408C147.439 20.408 146.563 20.144 145.939 19.616C145.339 19.088 145.039 18.32 145.039 17.312C145.039 16.328 145.339 15.572 145.939 15.044C146.563 14.516 147.439 14.252 148.567 14.252C149.743 14.252 150.631 14.516 151.231 15.044C151.831 15.572 152.131 16.328 152.131 17.312C152.131 18.32 151.831 19.088 151.231 19.616C150.631 20.144 149.743 20.408 148.567 20.408ZM165.172 41.396C163.012 41.396 161.14 41.024 159.556 40.28C157.996 39.512 156.796 38.432 155.956 37.04C155.116 35.648 154.696 34.004 154.696 32.108C154.696 30.284 155.092 28.688 155.884 27.32C156.7 25.928 157.804 24.848 159.196 24.08C160.612 23.288 162.22 22.892 164.02 22.892C165.34 22.892 166.54 23.108 167.62 23.54C168.7 23.948 169.624 24.56 170.392 25.376C171.16 26.168 171.736 27.128 172.12 28.256C172.528 29.384 172.732 30.644 172.732 32.036C172.732 32.516 172.6 32.876 172.336 33.116C172.072 33.332 171.652 33.44 171.076 33.44H160.06V30.416H168.052L167.476 30.884C167.476 29.996 167.356 29.276 167.116 28.724C166.876 28.172 166.516 27.752 166.036 27.464C165.58 27.176 165.004 27.032 164.308 27.032C163.564 27.032 162.916 27.212 162.364 27.572C161.836 27.908 161.428 28.412 161.14 29.084C160.852 29.756 160.708 30.596 160.708 31.604V31.928C160.708 33.632 161.08 34.856 161.824 35.6C162.592 36.32 163.768 36.68 165.352 36.68C165.88 36.68 166.48 36.62 167.152 36.5C167.848 36.356 168.508 36.164 169.132 35.924C169.756 35.684 170.296 35.648 170.752 35.816C171.208 35.96 171.556 36.224 171.796 36.608C172.06 36.968 172.204 37.388 172.228 37.868C172.252 38.324 172.144 38.78 171.904 39.236C171.664 39.668 171.268 40.004 170.716 40.244C169.876 40.628 168.976 40.916 168.016 41.108C167.08 41.3 166.132 41.396 165.172 41.396ZM179.381 41C178.253 41 177.389 40.712 176.789 40.136C176.213 39.536 175.925 38.684 175.925 37.58V19.04C175.925 17.936 176.213 17.096 176.789 16.52C177.389 15.92 178.253 15.62 179.381 15.62H186.437C190.853 15.62 194.261 16.724 196.661 18.932C199.085 21.14 200.297 24.26 200.297 28.292C200.297 30.308 199.985 32.108 199.361 33.692C198.737 35.252 197.837 36.584 196.661 37.688C195.485 38.768 194.033 39.596 192.305 40.172C190.601 40.724 188.645 41 186.437 41H179.381ZM182.549 35.636H186.005C187.277 35.636 188.369 35.48 189.281 35.168C190.217 34.856 190.985 34.4 191.585 33.8C192.209 33.2 192.665 32.444 192.953 31.532C193.265 30.62 193.421 29.54 193.421 28.292C193.421 25.796 192.809 23.96 191.585 22.784C190.361 21.584 188.501 20.984 186.005 20.984H182.549V35.636ZM207.682 41C206.554 41 205.69 40.712 205.09 40.136C204.514 39.536 204.226 38.684 204.226 37.58V19.04C204.226 17.936 204.514 17.096 205.09 16.52C205.69 15.92 206.554 15.62 207.682 15.62H216.466C218.29 15.62 219.838 15.896 221.11 16.448C222.406 16.976 223.39 17.732 224.062 18.716C224.734 19.7 225.07 20.852 225.07 22.172C225.07 23.66 224.638 24.932 223.774 25.988C222.934 27.044 221.782 27.764 220.318 28.148V27.572C222.046 27.884 223.378 28.58 224.314 29.66C225.274 30.74 225.754 32.12 225.754 33.8C225.754 36.032 224.95 37.796 223.342 39.092C221.758 40.364 219.586 41 216.826 41H207.682ZM210.562 36.14H215.926C217.15 36.14 218.038 35.912 218.59 35.456C219.166 34.976 219.454 34.268 219.454 33.332C219.454 32.396 219.166 31.7 218.59 31.244C218.038 30.788 217.15 30.56 215.926 30.56H210.562V36.14ZM210.562 25.7H215.278C216.478 25.7 217.354 25.484 217.906 25.052C218.482 24.62 218.77 23.96 218.77 23.072C218.77 22.184 218.482 21.536 217.906 21.128C217.354 20.696 216.478 20.48 215.278 20.48H210.562V25.7Z" fill="white"/>
<rect width="62" height="58" rx="10" fill="#201E1E"/>
<rect x="5" y="7" width="6" height="6" rx="1" fill="white"/>
<rect x="5" y="46" width="6" height="6" rx="1" fill="white"/>
<rect x="5" y="33" width="6" height="6" rx="1" fill="white"/>
<rect x="5" y="20" width="6" height="6" rx="1" fill="white"/>
<rect x="52" y="7" width="6" height="6" rx="1" fill="white"/>
<rect x="52" y="46" width="6" height="6" rx="1" fill="white"/>
<rect x="52" y="33" width="6" height="6" rx="1" fill="white"/>
<rect x="52" y="20" width="6" height="6" rx="1" fill="white"/>
<rect x="14" width="35" height="58" fill="#8A8CC1"/>
<circle cx="31.5" cy="29.5" r="12.5" fill="white"/>
<path d="M39 29.5L27.75 35.9952V23.0048L39 29.5Z" fill="#ED6A6A"/>
</svg>
